<?xml version="1.0" standalone="no"?>
<!DOCTYPE svg PUBLIC "-//W3C//DTD SVG 20010904//EN"
 "http://www.w3.org/TR/2001/REC-SVG-20010904/DTD/svg10.dtd">
<svg version="1.0" xmlns="http://www.w3.org/2000/svg"
 width="1000.000000pt" height="1000.000000pt" viewBox="0 0 1000.000000 1000.000000"
 preserveAspectRatio="xMidYMid meet">
<metadata>
Created by potrace 1.11, written by Peter Selinger 2001-2013
</metadata>
<g transform="translate(0.000000,1000.000000) scale(0.100000,-0.100000)"
fill="#000000" stroke="none">
<path d="M827 9984 c-391 -71 -700 -361 -800 -751 l-22 -88 0 -4145 0 -4145
22 -87 c93 -363 358 -634 720 -736 l98 -27 4150 0 4150 0 90 23 c120 30 294
116 388 192 174 140 293 327 350 547 l22 88 0 4145 0 4145 -23 90 c-30 120
-116 294 -192 388 -138 171 -322 290 -542 349 l-83 23 -4125 2 c-3508 1 -4137
-1 -4203 -13z m6278 -2972 c379 -59 619 -164 796 -348 102 -107 172 -219 226
-364 29 -75 74 -242 68 -248 -3 -3 -774 -112 -797 -112 -3 0 -9 15 -13 33 -4
17 -26 73 -50 123 -36 75 -56 102 -119 162 -149 141 -314 192 -626 192 -387 0
-609 -88 -703 -279 -31 -63 -32 -70 -32 -191 0 -159 16 -200 116 -294 116
-110 264 -169 649 -256 468 -107 544 -125 680 -162 590 -161 865 -392 972
-815 20 -78 23 -112 22 -298 0 -194 -2 -217 -26 -307 -85 -315 -278 -539 -591
-688 -358 -171 -915 -237 -1470 -174 -699 78 -1141 386 -1310 909 -47 147 -48
154 -24 160 39 9 751 125 768 125 11 0 20 -14 28 -44 6 -23 32 -85 57 -137 59
-118 170 -234 279 -291 178 -92 361 -123 685 -115 242 6 340 20 472 70 196 75
305 201 328 378 20 160 -22 282 -132 383 -141 131 -319 196 -833 306 -238 51
-547 130 -685 176 -548 183 -800 505 -800 1024 0 70 7 165 15 211 88 504 494
804 1195 884 187 21 681 14 855 -13z m-2815 -1437 c0 -919 -4 -1439 -11 -1503
-32 -300 -139 -548 -312 -729 -92 -96 -181 -164 -287 -222 -379 -204 -1055
-211 -1469 -16 -312 148 -502 409 -611 843 -17 65 -30 124 -30 132 0 13 75 26
406 75 429 62 423 62 424 14 0 -35 53 -197 86 -267 41 -86 132 -187 201 -224
79 -43 158 -61 268 -61 163 -1 262 38 354 139 65 70 108 162 132 277 18 87 19
153 19 1195 l0 1102 -395 0 -395 0 0 325 0 325 810 0 810 0 0 -1405z"/>
</g>
</svg>
